<svg width="30" height="39" viewBox="0 0 30 39" fill="none" xmlns="http://www.w3.org/2000/svg">
<path d="M19.9209 30.1268C19.1887 28.958 18.6163 28.0618 18.5671 27.4858C18.5408 27.1819 18.5383 26.8953 18.5596 26.6319C18.2803 25.7913 18.5183 24.8214 18.6671 24.3597C18.6753 24.2027 18.6893 23.7799 18.7024 23.3695C18.7779 21.0451 18.7733 20.3817 18.8306 20.1961C18.9152 19.8453 19.174 19.6587 19.3377 19.5511C19.3713 19.0803 19.6676 18.8884 19.8559 18.8106C19.8456 18.7089 19.8391 18.6041 19.8379 18.4961C19.8322 17.9044 19.9187 17.1772 20.0759 16.501C20.2516 15.7407 20.6717 15.503 20.9227 15.3612C21.07 15.2778 21.07 15.2778 21.1004 15.1818C21.3066 14.5312 21.8356 13.7112 22.348 13.0354C22.363 11.8898 22.1997 10.924 21.9884 9.87377C21.8666 9.26742 22.1361 6.33854 21.9436 5.79627C21.7211 5.16977 21.624 4.46719 21.4213 3.83533C21.0719 2.74715 20.368 2.50346 20.066 1.30061C19.8818 0.566303 19.7102 0.62289 19.4577 0.177715C19.3209 -0.0631943 18.8529 -0.0490532 18.701 0.159069C18.6545 0.222939 18.6071 0.429985 18.5826 0.527077C18.5 0.855865 17.5025 0.231297 17.3366 0.571445C17.2763 0.695332 17.1365 0.855011 17.0749 0.977821C17.0145 1.09849 17.0019 1.2556 17.0327 1.39449C16.8293 1.83537 16.9354 2.15131 16.8261 2.73365C16.6836 3.49261 17.3593 4.68259 16.5233 4.74068C15.6786 4.79962 15.6772 6.97597 15.6195 8.68979C15.7087 8.93841 15.7504 9.17247 15.7458 9.72009C15.7417 10.1783 15.7774 10.5607 15.8115 10.93C15.8505 11.3501 15.8907 11.7848 15.873 12.3129C15.8566 12.8099 15.9304 12.9878 16.042 13.257C16.1155 13.4345 16.1986 13.6364 16.2655 13.9234C16.4107 13.9783 16.5908 14.1088 16.6506 14.4187C16.7252 14.674 16.7753 15.2238 16.8767 17.0728C16.8964 17.4256 16.9181 17.8217 16.9299 17.9492C17.1367 18.6291 17.5168 20.2055 17.0813 21.4971C17.1195 21.9247 17.1187 22.3975 17.0793 22.9049C16.9291 24.8351 16.7122 25.9621 16.3759 26.559C16.3296 26.6413 16.2795 26.7078 16.2301 26.777C16.2337 26.8937 16.24 27.016 16.2545 27.1547C16.3638 28.1983 16.7045 30.7069 17.009 31.5462C17.0955 31.7847 17.2529 31.9344 17.4048 31.8906C17.7021 32.2915 17.8975 32.3898 18.0808 32.7364C18.2195 32.9988 18.2006 33.6051 18.3024 34.3973C18.3663 34.8939 18.1521 35.4552 18.1521 35.4552H19.2257C19.2257 35.4552 19.0271 34.6133 19.035 34.0046C19.0421 33.454 19.122 32.8127 19.0969 32.2074C19.0989 32.2042 19.1006 32.2004 19.1025 32.1971C19.3596 31.78 19.6415 31.4266 19.8757 30.9607C19.9546 30.8035 20.0354 30.6172 20.1128 30.42C20.0817 30.3785 20.0508 30.3351 20.0214 30.2872L19.9209 30.1268Z" fill="#155343"/>
<path d="M5.916 30.5598C5.91534 30.5588 5.15437 30.3006 4.79703 29.7185C4.58764 29.3773 4.42865 28.9386 4.20032 28.6478C4.47244 28.736 4.97428 28.4403 5.19078 28.6981C5.42914 28.9821 5.48333 29.4847 5.916 29.2989C5.93049 29.9489 5.93769 29.9874 5.916 30.5598ZM8.65873 28.3686C8.54779 27.9919 8.45998 27.6944 8.16527 27.2501C8.08187 27.1242 7.99297 27.0109 7.9047 26.8973C7.77777 26.7346 7.64649 26.5657 7.51916 26.3584C6.92505 25.3918 6.55232 24.3514 6.41208 23.2655C6.33263 22.6489 6.34191 22.0323 6.35129 21.4364C6.35757 21.0195 6.36385 20.6261 6.34158 20.2351C6.32977 20.0244 6.30901 19.8237 6.28901 19.6251C6.25024 19.2469 6.21063 18.8564 6.2252 18.413C6.26121 17.3127 6.55122 15.9538 6.7844 14.8624C6.83404 14.6283 6.8816 14.4074 6.92271 14.2048C7.09593 13.353 7.06612 12.4783 7.03481 11.552C7.00769 10.7534 6.97955 9.92734 7.08807 9.09251C7.14232 8.67477 7.16977 8.14365 7.2587 7.8333C7.04511 7.56774 7.02653 7.5148 6.85112 7.32532C6.34334 6.77684 5.21633 7.01004 4.78815 7.61982C4.52568 7.99362 2.91474 8.62826 2.81386 9.07944C2.52969 9.52825 2.24553 9.97835 2.0908 10.6019C2.00357 10.9534 1.94638 11.3409 1.91314 11.7395C1.77693 11.9421 1.63159 12.138 1.47309 12.36C1.09215 12.8939 2.06712 13.3089 1.93944 14.1532C1.74227 15.4565 2.09172 14.2805 1.7873 15.5665C1.5857 16.4187 0.325481 16.2678 0.0604935 19.6816C-0.191851 22.9321 0.424948 23.2405 0.455338 23.7005C0.505154 24.4543 0.36634 25.4771 0.555723 26.2005C0.971504 27.7889 1.9828 27.4312 2.3856 27.9938C2.56242 28.2409 3.11024 28.1659 3.20225 28.4531C3.98264 30.8866 5.01438 30.9237 5.16015 31.0358C5.25407 31.0929 5.34493 31.1627 5.42764 31.2682C5.45343 31.3011 5.47454 31.3378 5.49764 31.373C5.65211 31.5783 5.7257 31.7905 5.80993 32.1705C5.80834 32.1692 5.80783 32.1688 5.80624 32.1677C5.82693 32.2749 5.84058 32.3831 5.8507 32.492C5.89776 32.7014 5.91174 32.9261 5.89508 33.1528C5.97411 33.3614 6.04184 33.5853 6.05541 33.673C6.08128 33.8406 6.04351 34.8825 6.03547 34.9984C5.99822 35.5311 6.02193 36.0251 5.91073 36.173L6.96172 36.1736C6.82174 35.8648 6.88111 34.9341 6.87281 34.2416C6.86996 34.0039 6.85723 33.6415 6.8574 33.2971C6.81629 32.8971 6.9088 32.8302 6.9181 32.5336C6.92732 32.2365 6.80215 31.8595 6.87843 31.5549C6.91986 31.1428 6.96592 30.7293 7.03071 30.3313C7.08848 30.3274 7.33035 30.2962 7.64249 30.2475C7.61411 30.3086 7.58329 30.3659 7.55442 30.4262C7.89139 30.6959 8.2283 30.6916 8.5653 30.4089C8.59578 30.3883 8.62776 30.3824 8.65948 30.3821C8.83999 30.2308 8.89441 29.7074 9.11402 29.5063C9.07308 29.4455 9.02788 29.3887 8.99689 29.3201C8.82726 28.941 8.73784 28.6368 8.65873 28.3686Z" fill="#2B9A40"/>
<path d="M13.9114 28.239C13.6483 28.9452 13.3617 29.6035 13.0825 30.2802C13.0819 30.2816 13.0815 30.2831 13.081 30.2844C13.1307 29.6416 13.1861 28.989 13.2677 28.3663C13.4658 28.3494 13.6356 27.9509 13.8111 27.6063C13.9705 27.2934 14.1601 27.1369 14.3605 27.0296C14.1923 27.3825 14.0656 27.8249 13.9114 28.239ZM12.5407 29.9528C12.4779 29.965 12.4058 29.935 12.365 29.8634C12.1483 29.4847 11.9272 29.1107 11.7061 28.7364C11.7015 28.7286 11.6969 28.7206 11.6921 28.7127C11.6058 28.5665 11.6796 28.2889 11.8464 28.3644C11.8795 28.3794 11.9098 28.3888 11.9382 28.3935C12.1307 28.4262 12.2186 28.2341 12.33 28.0013C12.3967 27.862 12.5949 27.8644 12.6196 28.0512C12.6938 28.6156 12.7271 29.1855 12.7298 29.7582C12.7305 29.9108 12.6292 29.9734 12.5407 29.9528ZM11.7647 30.5056C11.432 30.2019 11.2292 30.1149 10.935 29.3107L10.9414 29.2867L11.0151 29.0097C11.0151 29.0097 11.0959 29.0732 11.1978 29.1628C11.3025 29.2552 11.4293 29.375 11.5141 29.4834C11.7929 29.8398 11.8853 30.1129 11.9979 30.7441C11.8545 30.6061 11.8778 30.6087 11.7647 30.5056ZM15.9883 18.1029C15.9546 17.9823 15.8568 14.937 15.7464 14.6584C15.6977 14.2207 15.6111 15.634 15.474 15.2225C15.4903 15.1237 15.5006 15.0227 15.4959 14.9205C15.4523 13.9676 15.2557 13.7185 15.1386 13.3048C15.0791 13.095 15.0398 12.8436 15.0519 12.4346C15.0795 11.5081 14.9323 10.903 14.94 9.90978C14.9473 8.95899 14.8186 9.23334 14.653 8.35757C14.6454 8.31685 14.636 8.28298 14.6275 8.24548C14.3371 6.9494 13.6294 7.4533 13.3402 6.3364C12.993 4.9951 13.2486 4.81549 12.4977 3.80726C11.9695 3.09824 11.2906 3.66065 10.8452 4.44919C10.5722 4.9323 10.3859 5.45913 10.2809 6.04255C9.98535 6.62275 9.68987 4.9025 9.52889 5.70883C9.43812 6.16343 9.37859 5.74355 9.34402 6.25881C9.20235 6.52073 9.05107 6.77428 8.88629 7.06128C8.72738 7.33798 8.59501 7.59133 8.48358 7.86439C8.3708 8.14024 8.28097 8.44159 8.20981 8.80789C8.17582 8.98278 8.14476 9.1684 8.11912 9.37952C7.91401 11.0648 8.27754 12.7671 7.96088 14.4301C7.75116 15.5318 7.37088 17.1995 7.33254 18.4492C7.31361 19.0658 7.40706 19.584 7.43878 20.1787C7.49061 21.1531 7.38344 22.1446 7.49948 23.1029C7.63754 24.2425 8.01674 25.1664 8.43578 25.8942C8.61972 26.2136 8.83003 26.4478 9.01841 26.7511C9.53975 27.5907 9.46876 28.0146 9.82452 28.8625C9.84259 28.9056 9.86638 28.9465 9.89317 28.9862C10.0628 29.2354 10.3829 29.4103 10.572 29.5102C10.6048 29.5275 10.6341 29.543 10.6575 29.5557C10.8341 30.1648 11.0132 30.5146 11.1875 30.718C11.3584 30.9171 11.563 31.1014 11.8767 31.4926C12.0085 31.657 12.2271 32.4766 12.2531 32.6869C12.2801 32.9036 12.2408 33.6169 12.2324 33.7669C12.1936 34.4556 12.1834 34.8034 12.0676 34.9948L13.196 34.9157C13.0503 34.5162 13.112 33.6837 13.1035 32.7884C13.0981 32.2288 13.0568 32.3156 13.1292 31.8058C13.2057 31.2678 13.9794 29.0097 14.7957 26.8386C14.9124 26.7884 15.0283 26.7288 15.1403 26.6443C15.2897 26.5314 15.4323 26.373 15.5593 26.1205C15.6641 25.9126 15.7498 25.6085 15.8205 25.2598C15.981 24.4688 16.0634 23.4467 16.1096 22.7831C16.1429 22.3028 16.1453 21.8201 16.1006 21.3754C16.4318 20.4301 16.2726 19.1258 15.9883 18.1029Z" fill="#BAE154"/>
<path d="M25.0337 31.1319C24.6997 31.726 24.5501 31.1754 24.0574 32.3403C24.0567 32.3418 23.9793 31.5759 23.0661 30.7572C23.2219 30.5106 23.499 30.4524 23.7815 30.9295C23.9481 31.2111 24.2423 30.8978 24.3409 30.8978C25.0379 30.8978 25.4135 30.4552 25.0337 31.1319ZM29.9734 22.8877C29.7788 20.1698 28.2643 20.29 28.1162 19.6113C27.8927 18.5874 28.1492 19.5238 28.0045 18.4861C27.9107 17.814 27.7426 17.4835 27.4629 17.0585C27.3465 16.8816 27.2398 16.7258 27.1397 16.5644C27.1153 16.247 27.0735 15.9386 27.0094 15.6586C26.8958 15.162 26.687 14.8039 26.4785 14.4466C26.4045 14.0874 25.2214 13.582 25.0287 13.2845C24.7143 12.799 23.8868 12.6134 23.514 13.05C23.4231 13.1563 23.3198 13.2862 23.2131 13.4249C22.9456 13.7721 22.647 14.1988 22.3898 14.6292C22.1496 15.0309 21.9468 15.4312 21.8489 15.7615C21.6388 16.4693 21.115 16.1167 20.9221 17.0062C20.8051 17.5454 20.7144 18.227 20.7195 18.8126C20.7249 19.4241 20.9409 19.9383 20.9604 20.509C20.986 21.2568 20.3736 19.0288 20.3271 19.9135C20.3239 19.9763 20.3312 20.0386 20.3425 20.0994C20.2459 20.3528 19.8772 20.3954 19.8429 20.6651C19.765 20.8365 19.6959 24.4129 19.6722 24.4872C19.4714 25.117 19.359 25.9204 19.5927 26.5022C19.5612 26.7762 19.5629 27.0734 19.5864 27.3692C19.625 27.8538 20.2345 28.9283 20.5836 29.5271C20.6587 29.656 20.7225 29.7638 20.7652 29.8379C20.8942 30.0613 21.0455 30.1654 21.202 30.2362C21.2359 30.2516 21.2699 30.267 21.3042 30.2799C22.8457 30.9957 23.6021 33.2319 23.6559 33.5633C23.7071 33.8773 23.678 34.1356 23.6741 34.4802C23.6681 35.0315 23.7116 35.5508 23.609 35.7968L24.6976 36.1295C24.6159 36.0114 24.5602 35.5069 24.5328 35.0827C24.5268 34.9905 24.4991 33.822 24.5182 33.6886C24.5366 33.5592 24.9276 32.3943 25.0482 32.2717C25.1713 32.1465 25.8655 31.4457 25.9731 31.2221C26.2243 30.7 26.8564 29.8561 26.9862 29.6596C27.282 29.2116 28.3192 30.4828 28.4418 27.7872C28.469 27.1903 29.2556 26.6564 29.2923 26.0562C29.3146 25.69 30.1588 25.4756 29.9734 22.8877Z" fill="#149EB0"/>
<path d="M26.9547 36.9369C26.0832 36.2834 20.7573 34.7914 15.2807 34.7786V34.7781C15.2691 34.7781 15.2226 34.7781 15.2109 34.7781V34.7786C9.73426 34.7914 4.40829 36.2834 3.53698 36.9369C3.10145 37.2635 3.09466 38.1773 3.1994 38.1346C3.34249 38.0763 3.67128 37.8944 4.20116 37.699C7.3739 36.5295 11.6494 35.8982 15.2458 35.8914C18.8421 35.8982 23.1177 36.5295 26.2905 37.699C26.8203 37.8944 27.1491 38.0763 27.2923 38.1346C27.3971 38.1773 27.3903 37.2635 26.9547 36.9369Z" fill="#155343"/>
</svg>
